HIERARCHY
ROOT SpineBase
{
  OFFSET 0.000000 0.000000 0.000000
  CHANNELS 6 Xposition Yposition Zposition Zrotation Xrotation Yrotation
  JOINT SpineMid
  {
    OFFSET 0.000000 35.584900 -0.000000
    CHANNELS 3 Zrotation Xrotation Yrotation
    JOINT SpineShoulder
    {
      OFFSET 0.269356 26.336166 -0.999288
      CHANNELS 3 Zrotation Xrotation Yrotation
      JOINT Neck
      {
        OFFSET 0.191036 8.676768 -0.717677
        CHANNELS 3 Zrotation Xrotation Yrotation
        JOINT Head
        {
          OFFSET -0.978038 11.640768 4.793549
          CHANNELS 3 Zrotation Xrotation Yrotation
          End Site
          {
            OFFSET 0 0 0
          }
        }
      }
      JOINT ShoulderLeft
      {
        OFFSET -14.297082 -5.812247 -2.411448
        CHANNELS 3 Zrotation Xrotation Yrotation
        JOINT ElbowLeft
        {
          OFFSET -8.168124 -22.764797 8.505253
          CHANNELS 3 Zrotation Xrotation Yrotation
          JOINT WristLeft
          {
            OFFSET 9.123337 -17.439264 -19.240362
            CHANNELS 3 Zrotation Xrotation Yrotation
            JOINT HandLeft
            {
              OFFSET 1.605909 -6.673416 3.172278
              CHANNELS 3 Zrotation Xrotation Yrotation
              JOINT HandTipLeft
              {
                OFFSET 2.423668 -6.810071 -1.885700
                CHANNELS 3 Zrotation Xrotation Yrotation
                End Site
                {
                  OFFSET 0 0 0
                }
              }
              JOINT ThumbLeft
              {
                OFFSET 5.519147 4.471950 -4.378683
                CHANNELS 3 Zrotation Xrotation Yrotation
                End Site
                {
                  OFFSET 0 0 0
                }
              }
            }
          }
        }
      }
      JOINT ShoulderRight
      {
        OFFSET 15.583074 -7.451542 -8.655072
        CHANNELS 3 Zrotation Xrotation Yrotation
        JOINT ElbowRight
        {
          OFFSET 7.481938 -25.380129 2.016659
          CHANNELS 3 Zrotation Xrotation Yrotation
          JOINT WristRight
          {
            OFFSET -0.828341 -20.405168 11.228588
            CHANNELS 3 Zrotation Xrotation Yrotation
            JOINT HandRight
            {
              OFFSET -0.715031 -4.368967 0.440715
              CHANNELS 3 Zrotation Xrotation Yrotation
              JOINT HandTipRight
              {
                OFFSET 0.666792 -4.560551 1.008190
                CHANNELS 3 Zrotation Xrotation Yrotation
                End Site
                {
                  OFFSET 0 0 0
                }
              }
              JOINT ThumbRight
              {
                OFFSET 1.248087 2.814891 -1.477341
                CHANNELS 3 Zrotation Xrotation Yrotation
                End Site
                {
                  OFFSET 0 0 0
                }
              }
            }
          }
        }
      }
    }
  }
  JOINT HipLeft
  {
    OFFSET -5.665596 1.239540 -2.356638
    CHANNELS 3 Zrotation Xrotation Yrotation
    JOINT KneeLeft
    {
      OFFSET -3.960260 -37.562560 0.281443
      CHANNELS 3 Zrotation Xrotation Yrotation
      JOINT AnkleLeft
      {
        OFFSET 0.502506 -29.082426 1.118686
        CHANNELS 3 Zrotation Xrotation Yrotation
        JOINT FootLeft
        {
          OFFSET -1.783584 -1.937765 -14.747035
          CHANNELS 3 Zrotation Xrotation Yrotation
          End Site
          {
            OFFSET 0 0 0
          }
        }
      }
    }
  }
  JOINT HipRight
  {
    OFFSET 7.608956 1.701015 -5.231652
    CHANNELS 3 Zrotation Xrotation Yrotation
    JOINT KneeRight
    {
      OFFSET 1.135014 -36.784404 -2.311193
      CHANNELS 3 Zrotation Xrotation Yrotation
      JOINT AnkleRight
      {
        OFFSET 1.859016 -28.665610 -1.020986
        CHANNELS 3 Zrotation Xrotation Yrotation
        JOINT FootRight
        {
          OFFSET -2.255332 -2.173163 -15.810304
          CHANNELS 3 Zrotation Xrotation Yrotation
          End Site
          {
            OFFSET 0 0 0
          }
        }
      }
    }
  }
}
MOTION
Frames: 13
Frame Time: 0.033333
-59.683490 73.649545 233.733463 -0.136135 2.081168 11.873258 0.104732 0.334741 -11.898836 0.084393 0.130663 -0.027402 -3.336442 3.702728 1.962734 0.000000 0.000000 0.000000 0.020542 -2.560896 0.058443 -7.135063 -13.395160 0.004095 5.062131 39.792846 5.260012 -11.341101 -30.754865 -10.786382 0.000000 0.000000 0.000000 0.000000 0.000000 0.000000 -3.165107 -1.811661 -0.095581 7.386005 5.447350 2.007858 1.354947 -11.403299 -0.030533 -8.483503 26.796916 2.219225 0.000000 0.000000 0.000000 0.000000 0.000000 0.000000 -0.295071 -2.064644 -11.876103 -0.712820 -0.876907 -0.048018 2.283431 -10.269442 -6.075631 0.000000 0.000000 0.000000 -1.096035 -1.678683 -11.841475 -0.255060 -2.539768 -0.197453 2.510654 -4.264106 -5.627868 0.000000 0.000000 0.000000
-59.640714 73.685730 233.798670 -0.166076 2.215341 11.782643 0.111490 0.303373 -11.808816 0.081750 0.115372 -0.029224 -3.228576 3.762984 1.940341 0.000000 0.000000 0.000000 0.039794 -2.650375 0.062457 -7.195605 -13.111924 0.275581 5.878091 39.552813 4.933118 -12.149835 -29.719933 -10.739949 0.000000 0.000000 0.000000 0.000000 0.000000 0.000000 -3.126831 -1.950375 -0.110214 7.523751 5.816456 2.076398 0.168275 -12.248297 -0.246113 -5.287059 31.711400 2.787826 0.000000 0.000000 0.000000 0.000000 0.000000 0.000000 -0.289896 -2.202568 -11.785005 -0.855965 -0.482355 -0.044862 1.988806 -6.341084 -4.143491 0.000000 0.000000 0.000000 -1.152729 -1.701271 -11.745210 -0.052058 -2.429459 -0.192368 1.560225 0.655808 -2.814793 0.000000 0.000000 0.000000
-59.601358 73.721410 233.878218 -0.200263 2.350346 11.712076 0.109757 0.266279 -11.739164 0.076437 0.100298 -0.031779 -3.085929 3.912311 1.919752 0.000000 0.000000 0.000000 0.073372 -2.733534 0.067882 -7.307198 -12.906696 0.551606 6.689344 39.245014 4.543053 -13.018408 -29.024529 -10.847731 0.000000 0.000000 0.000000 0.000000 0.000000 0.000000 -3.063908 -2.109740 -0.130477 7.566282 6.188795 2.106016 -1.052912 -13.072790 -0.463037 -4.746326 33.517317 3.070675 0.000000 0.000000 0.000000 0.000000 0.000000 0.000000 -0.281111 -2.342056 -11.713714 -0.941176 -0.463971 -0.048031 1.881356 -5.218464 -2.976964 0.000000 0.000000 0.000000 -1.187064 -1.723370 -11.669231 0.107791 -2.250897 -0.180610 1.376831 0.735937 -2.456889 0.000000 0.000000 0.000000
-59.564278 73.756765 233.971950 -0.236826 2.482402 11.662201 0.106700 0.232999 -11.690308 0.071555 0.088570 -0.034587 -2.958636 4.015985 1.903296 0.000000 0.000000 0.000000 0.111180 -2.820552 0.073897 -7.414826 -12.756369 0.784134 7.115999 39.057456 4.234481 -13.188815 -28.262655 -10.562834 0.000000 0.000000 0.000000 0.000000 0.000000 0.000000 -2.978937 -2.274040 -0.148340 7.470325 6.456456 2.078836 -1.298556 -11.904689 -0.767841 -2.857618 30.982633 2.880568 0.000000 0.000000 0.000000 0.000000 0.000000 0.000000 -0.269952 -2.479020 -11.662910 -1.017313 -0.740812 -0.058505 2.224426 -7.453487 -3.374305 0.000000 0.000000 0.000000 -1.207666 -1.727932 -11.613274 0.266338 -2.284230 -0.183110 1.627840 -1.248989 -3.560447 0.000000 0.000000 0.000000
-59.528760 73.784994 234.065801 -0.270710 2.599729 11.658966 0.102075 0.199969 -11.687985 0.067515 0.077577 -0.037133 -2.882143 4.098918 1.903955 0.000000 0.000000 0.000000 0.147264 -2.893544 0.079457 -7.617069 -12.801339 0.992828 6.642058 38.275162 3.670079 -11.705144 -26.970255 -9.073139 0.000000 0.000000 0.000000 0.000000 0.000000 0.000000 -2.888814 -2.390574 -0.153906 7.264178 6.605966 1.996862 -0.807217 -11.977931 -0.588555 -5.404517 26.045753 2.229667 0.000000 0.000000 0.000000 0.000000 0.000000 0.000000 -0.260328 -2.600788 -11.658732 -0.985906 -1.273335 -0.070864 2.799173 -13.309444 -5.288009 0.000000 0.000000 0.000000 -1.218583 -1.737736 -11.605014 0.354623 -2.385251 -0.189382 1.487102 0.715813 -4.553128 0.000000 0.000000 0.000000
-59.501078 73.799929 234.167912 -0.303295 2.675537 11.612310 0.094858 0.170014 -11.642083 0.062943 0.068676 -0.039426 -2.896523 4.237015 1.946466 0.000000 0.000000 0.000000 0.185541 -2.929546 0.084429 -7.772287 -12.944075 1.077628 6.367477 38.340628 3.481177 -12.652172 -27.164650 -9.151394 0.000000 0.000000 0.000000 0.000000 0.000000 0.000000 -2.818656 -2.441864 -0.151650 7.054194 6.671419 1.901739 -0.240104 -10.086396 -0.767769 -3.295917 22.178822 2.078711 0.000000 0.000000 0.000000 0.000000 0.000000 0.000000 -0.241531 -2.681813 -11.610881 -0.935621 -1.532097 -0.074947 3.060929 -18.205868 -7.380948 0.000000 0.000000 0.000000 -1.198178 -1.706270 -11.552791 0.415390 -2.570758 -0.199926 1.186470 0.305575 -2.025551 0.000000 0.000000 0.000000
-59.475428 73.814190 234.273242 -0.340997 2.736644 11.485475 0.086490 0.148322 -11.516168 0.057733 0.062956 -0.042125 -2.898447 4.265473 1.976727 0.000000 0.000000 0.000000 0.232215 -2.961799 0.090246 -7.647662 -12.566744 1.192491 7.720945 39.211634 3.800512 -18.101389 -28.955513 -12.393931 0.000000 0.000000 0.000000 0.000000 0.000000 0.000000 -2.771564 -2.472148 -0.146746 6.946909 6.761896 1.839790 -0.281489 -9.644519 -0.839867 -3.931113 24.726358 2.667722 0.000000 0.000000 0.000000 0.000000 0.000000 0.000000 -0.210779 -2.749730 -11.482388 -0.925355 -1.566543 -0.075287 3.132100 -23.858405 -10.130781 0.000000 0.000000 0.000000 -1.166391 -1.645147 -11.418890 0.423695 -2.648791 -0.201802 1.437701 -2.116977 -1.428885 0.000000 0.000000 0.000000
-59.450125 73.821446 234.376605 -0.374440 2.771043 11.260109 0.081235 0.137054 -11.291492 0.055217 0.060956 -0.044193 -2.992706 4.362857 2.047397 0.000000 0.000000 0.000000 0.270710 -2.981831 0.094903 -7.498062 -12.223367 1.252048 9.648591 40.171491 4.178911 -23.740987 -30.123765 -15.993519 0.000000 0.000000 0.000000 0.000000 0.000000 0.000000 -2.735351 -2.476032 -0.138136 6.673864 6.779973 1.692192 1.688856 -8.406924 -0.528709 -5.709809 24.889681 2.934757 0.000000 0.000000 0.000000 0.000000 0.000000 0.000000 -0.173838 -2.790803 -11.255287 -0.834414 -1.615812 -0.071755 2.636402 -27.515531 -14.186394 0.000000 0.000000 0.000000 -1.134804 -1.551939 -11.185635 0.383233 -2.693196 -0.201153 2.698237 -10.802337 -3.354351 0.000000 0.000000 0.000000
-59.413201 73.829485 234.477954 -0.404018 2.795400 10.955048 0.078054 0.124231 -10.986842 0.053903 0.057301 -0.045694 -3.088546 4.473712 2.115444 0.000000 0.000000 0.000000 0.301645 -2.988993 0.098436 -7.459299 -12.112317 1.282343 10.428397 40.945508 4.401742 -25.715834 -30.776177 -17.570595 0.000000 0.000000 0.000000 0.000000 0.000000 0.000000 -2.707579 -2.462603 -0.128666 6.802993 6.730964 1.754769 0.298918 -10.153547 -0.540661 -7.621408 20.640568 1.795069 0.000000 0.000000 0.000000 0.000000 0.000000 0.000000 -0.134521 -2.821219 -10.948502 -0.712956 -1.524949 -0.063238 1.988387 -29.387522 -17.655218 0.000000 0.000000 0.000000 -1.119780 -1.438980 -10.871808 0.328138 -2.863488 -0.210443 3.864646 -20.845400 -5.496467 0.000000 0.000000 0.000000
-59.372947 73.844893 234.567510 -0.427871 2.822812 10.660725 0.071938 0.105453 -10.692947 0.044528 0.074619 -0.048265 -3.104968 4.413529 2.136109 0.000000 0.000000 0.000000 0.336931 -3.013794 0.102884 -7.559970 -12.163417 1.366778 10.914632 41.986732 4.515819 -26.545435 -32.132613 -18.986445 0.000000 0.000000 0.000000 0.000000 0.000000 0.000000 -2.721478 -2.429683 -0.113074 7.095198 6.694527 1.870819 -1.853579 -12.342962 -0.751097 -4.212067 17.996439 0.863347 0.000000 0.000000 0.000000 0.000000 0.000000 0.000000 -0.101619 -2.853222 -10.652714 -0.662432 -1.486030 -0.059727 0.279287 -37.755115 -23.393848 0.000000 0.000000 0.000000 -1.121862 -1.352717 -10.570107 0.377831 -2.781142 -0.202727 4.449878 -29.731236 -7.724148 0.000000 0.000000 0.000000
-59.330239 73.855617 234.642718 -0.435612 2.839795 10.458759 0.055417 0.113483 -10.492283 0.033146 0.115481 -0.051623 -3.236617 4.332934 2.205848 0.000000 0.000000 0.000000 0.373696 -3.076275 0.108457 -7.737306 -12.386247 1.424126 10.636130 43.046676 4.594769 -25.212184 -33.650396 -19.250250 0.000000 0.000000 0.000000 0.000000 0.000000 0.000000 -2.751156 -2.415053 -0.094299 7.480774 6.706717 2.019630 -4.309943 -14.063869 -1.227575 -3.520714 16.742573 0.239217 0.000000 0.000000 0.000000 0.000000 0.000000 0.000000 -0.087014 -2.871667 -10.450142 -0.700989 -1.230305 -0.055733 -0.111550 -37.066362 -25.681051 0.000000 0.000000 0.000000 -1.175388 -1.262535 -10.361144 0.396484 -2.516279 -0.183790 4.474904 -33.677775 -9.629626 0.000000 0.000000 0.000000
-59.284829 73.871071 234.724609 -0.426881 2.824851 10.290671 0.045004 0.176794 -10.325732 0.052048 0.108815 -0.050526 -3.427919 4.314553 2.282670 0.000000 0.000000 0.000000 0.367348 -3.114994 0.108735 -7.957823 -12.767788 1.422035 9.976164 43.561398 4.538988 -24.133258 -34.285086 -18.812166 0.000000 0.000000 0.000000 0.000000 0.000000 0.000000 -2.852511 -2.402499 -0.091710 7.940461 6.844173 2.193327 -6.465012 -15.610974 -1.732624 -3.465817 18.986114 0.297196 0.000000 0.000000 0.000000 0.000000 0.000000 0.000000 -0.729448 -2.336757 -10.358565 0.039573 -1.456201 -0.006292 0.039973 -34.994167 -26.186388 0.000000 0.000000 0.000000 -1.219333 -1.156493 -10.187498 0.471364 -2.567410 -0.187256 4.081337 -30.491299 -10.634836 0.000000 0.000000 0.000000
-59.242307 73.873157 234.825556 -0.426460 2.769359 10.422392 0.038979 0.249899 -10.458787 0.088440 0.017185 -0.045854 -3.026760 3.995380 2.068453 0.000000 0.000000 0.000000 0.349843 -3.038733 0.104912 -8.106152 -12.987302 1.445599 9.716535 42.886217 4.187653 -21.503156 -33.787970 -17.158508 0.000000 0.000000 0.000000 0.000000 0.000000 0.000000 -2.959958 -2.258264 -0.080562 8.369808 6.899586 2.355026 -8.443970 -16.952360 -2.239176 -4.107664 21.562042 0.553219 0.000000 0.000000 0.000000 0.000000 0.000000 0.000000 -0.702542 -2.189414 -10.498033 0.027350 -1.378127 0.006604 0.595324 -33.116565 -24.575074 0.000000 0.000000 0.000000 -1.220729 -1.074732 -10.316634 0.544559 -2.822339 -0.205571 3.574253 -21.756140 -10.151460 0.000000 0.000000 0.000000
